<svg fill="#ffbd20" xmlns="http://www.w3.org/2000/svg"  viewBox="0 0 128 128" width="64px" height="64px"><path d="M104 31H24c-7.2 0-13 5.8-13 13v32 5 23c0 7.2 5.8 13 13 13h80c7.2 0 13-5.8 13-13V81v-5V44C117 36.8 111.2 31 104 31zM109.4 67C95.1 74.2 79.6 77.9 64 77.9S32.9 74.2 18.6 67c-1-.5-1.6-1.5-1.6-2.7 0-2.2 2.4-3.7 4.4-2.6 26.8 13.6 58.4 13.6 85.2 0 2-1 4.4.4 4.4 2.6C111 65.4 110.4 66.5 109.4 67zM82 27c-1.7 0-3-1.3-3-3 0-3.9-3.1-7-7-7H56c-3.9 0-7 3.1-7 7 0 1.7-1.3 3-3 3s-3-1.3-3-3c0-7.2 5.8-13 13-13h16c7.2 0 13 5.8 13 13C85 25.7 83.7 27 82 27z"/></svg>